<?xml version="1.0" encoding="UTF-8" standalone="no"?>
<!DOCTYPE svg PUBLIC "-//W3C//DTD SVG 1.1//EN" "http://www.w3.org/Graphics/SVG/1.1/DTD/svg11.dtd">
<!-- Created with Vectornator (http://vectornator.io/) -->
<svg height="100%" stroke-miterlimit="10" style="fill-rule:nonzero;clip-rule:evenodd;stroke-linecap:round;stroke-linejoin:round;" version="1.1" viewBox="0 0 6144 6144" width="100%" xml:space="preserve" xmlns="http://www.w3.org/2000/svg" xmlns:vectornator="http://vectornator.io" xmlns:xlink="http://www.w3.org/1999/xlink">
<defs/>
<g id="Calque-1" vectornator:layerName="Calque 1">
<path d="M2921.47 812.544C2857.98 817.664 2795.01 825.856 2732.54 837.12C2670.08 848.384 2607.1 863.232 2543.62 881.664C2480.13 900.096 2416.13 922.624 2351.62 949.248C2287.1 975.872 2233.34 1000.45 2190.34 1022.98C2147.33 1045.5 2098.18 1074.69 2042.88 1110.53C1987.58 1146.37 1934.34 1184.77 1883.14 1225.73C1831.94 1266.69 1780.74 1312.77 1729.54 1363.97C1678.34 1415.17 1634.3 1463.3 1597.44 1508.35C1560.58 1553.41 1522.18 1606.14 1482.24 1666.56C1442.3 1726.98 1408.51 1783.81 1380.86 1837.06C1353.22 1890.3 1327.1 1947.65 1302.53 2009.09C1277.95 2070.53 1253.38 2146.82 1228.8 2237.95C1204.22 2329.09 1192.45 2378.24 1193.47 2385.41C1194.5 2392.58 1192.96 2405.89 1188.86 2425.34C1184.77 2444.8 1180.16 2481.15 1175.04 2534.4C1169.92 2587.65 1167.36 2650.11 1167.36 2721.79C1167.36 2793.47 1170.43 2859.01 1176.58 2918.4C1182.72 2977.79 1193.98 3045.89 1210.37 3122.69C1226.75 3199.49 1244.67 3267.07 1264.13 3325.44C1283.58 3383.81 1307.65 3444.74 1336.32 3508.22C1364.99 3571.71 1392.64 3626.5 1419.26 3672.58C1445.89 3718.66 1481.73 3772.93 1526.78 3835.39C1571.84 3897.86 1624.58 3961.34 1684.99 4025.86C1745.41 4090.37 1796.1 4139.52 1837.06 4173.31C1878.02 4207.1 1898.5 4228.1 1898.5 4236.29C1898.5 4240.38 1908.74 4247.55 1913.86 4247.04C1924.1 4246.02 1950.21 4260.86 1992.19 4291.58C2034.18 4322.3 2086.4 4355.07 2148.86 4389.89C2211.33 4424.7 2266.11 4452.35 2313.22 4472.83C2360.32 4493.31 2409.47 4512.26 2460.67 4529.66C2511.87 4547.07 2557.44 4560.9 2597.38 4571.14C2637.31 4581.38 2686.98 4591.62 2746.37 4601.86C2805.76 4612.1 2858.5 4619.26 2904.58 4623.36C2950.66 4627.46 3007.49 4629.5 3075.07 4629.5C3142.66 4629.5 3199.49 4627.46 3245.57 4623.36C3291.65 4619.26 3348.99 4611.07 3417.6 4598.78C3486.21 4586.5 3554.82 4570.11 3623.42 4549.63C3692.03 4529.15 3752.45 4508.16 3804.67 4486.66C3856.9 4465.15 3911.17 4439.55 3967.49 4409.86C4023.81 4380.16 4079.62 4346.88 4134.91 4310.02C4190.21 4273.15 4246.02 4231.17 4302.34 4184.06C4358.66 4136.96 4406.27 4093.44 4445.18 4053.5C4484.1 4013.57 4523.01 3969.54 4561.92 3921.41C4600.83 3873.28 4634.11 3828.74 4661.76 3787.78C4689.41 3746.82 4721.66 3692.03 4758.53 3623.42C4795.39 3554.82 4823.55 3496.96 4843.01 3449.86C4862.46 3402.75 4880.38 3353.6 4896.77 3302.4C4913.15 3251.2 4929.02 3188.74 4944.38 3115.01C4959.74 3041.28 4970.5 2974.21 4976.64 2913.79C4982.78 2853.38 4985.86 2790.91 4985.86 2726.4C4985.86 2661.89 4983.3 2601.47 4978.18 2545.15C4973.06 2488.83 4964.86 2429.95 4953.6 2368.51C4942.34 2307.07 4928 2246.14 4910.59 2185.73C4893.18 2125.31 4873.73 2067.97 4852.22 2013.7C4830.72 1959.42 4804.61 1902.59 4773.89 1843.2C4743.17 1783.81 4715.52 1734.66 4690.94 1695.74C4666.37 1656.83 4647.42 1629.18 4634.11 1612.8C4620.8 1596.42 4581.89 1545.22 4548.1 1502.21C4514.3 1459.2 4480 1419.78 4445.18 1383.94C4410.37 1348.1 4370.43 1310.72 4325.38 1271.81C4280.32 1232.9 4231.17 1194.5 4177.92 1156.61C4124.67 1118.72 4073.98 1085.95 4025.86 1058.3C3977.73 1030.66 3920.38 1001.98 3853.82 972.288C3787.26 942.592 3725.82 918.528 3669.5 900.096C3613.18 881.664 3555.33 865.792 3495.94 852.48C3436.54 839.168 3372.03 828.416 3302.4 820.224C3232.77 812.032 3167.74 807.424 3107.33 806.4C3046.91 805.376 2984.96 807.424 2921.47 812.544Z" fill="#ffffff" fill-rule="nonzero" opacity="1" stroke="none" vectornator:layerName="Courbe 1"/>
<path d="M2921.47 812.544C2857.98 817.664 2795.01 825.856 2732.54 837.12C2670.08 848.384 2607.1 863.232 2543.62 881.664C2480.13 900.096 2416.13 922.624 2351.62 949.248C2287.1 975.872 2233.34 1000.45 2190.34 1022.98C2147.33 1045.5 2098.18 1074.69 2042.88 1110.53C1987.58 1146.37 1934.34 1184.77 1883.14 1225.73C1831.94 1266.69 1780.74 1312.77 1729.54 1363.97C1678.34 1415.17 1634.3 1463.3 1597.44 1508.35C1560.58 1553.41 1522.18 1606.14 1482.24 1666.56C1442.3 1726.98 1408.51 1783.81 1380.86 1837.06C1353.22 1890.3 1327.1 1947.65 1302.53 2009.09C1277.95 2070.53 1253.38 2146.82 1228.8 2237.95C1204.22 2329.09 1192.45 2378.24 1193.47 2385.41C1194.5 2392.58 1192.96 2405.89 1188.86 2425.34C1184.77 2444.8 1180.16 2481.15 1175.04 2534.4C1169.92 2587.65 1167.36 2650.11 1167.36 2721.79C1167.36 2793.47 1170.43 2859.01 1176.58 2918.4C1182.72 2977.79 1193.98 3045.89 1210.37 3122.69C1226.75 3199.49 1244.67 3267.07 1264.13 3325.44C1283.58 3383.81 1307.65 3444.74 1336.32 3508.22C1364.99 3571.71 1392.64 3626.5 1419.26 3672.58C1445.89 3718.66 1481.73 3772.93 1526.78 3835.39C1571.84 3897.86 1624.58 3961.34 1684.99 4025.86C1745.41 4090.37 1796.1 4139.52 1837.06 4173.31C1878.02 4207.1 1898.5 4228.1 1898.5 4236.29C1898.5 4240.38 1898.5 4244.48 1898.5 4248.58C1903.62 4248.06 1908.74 4247.55 1913.86 4247.04C1924.1 4246.02 1950.21 4260.86 1992.19 4291.58C2034.18 4322.3 2086.4 4355.07 2148.86 4389.89C2211.33 4424.7 2266.11 4452.35 2313.22 4472.83C2360.32 4493.31 2409.47 4512.26 2460.67 4529.66C2511.87 4547.07 2557.44 4560.9 2597.38 4571.14C2637.31 4581.38 2686.98 4591.62 2746.37 4601.86C2805.76 4612.1 2858.5 4619.26 2904.58 4623.36C2950.66 4627.46 3007.49 4629.5 3075.07 4629.5C3142.66 4629.5 3199.49 4627.46 3245.57 4623.36C3291.65 4619.26 3348.99 4611.07 3417.6 4598.78C3486.21 4586.5 3554.82 4570.11 3623.42 4549.63C3692.03 4529.15 3752.45 4508.16 3804.67 4486.66C3856.9 4465.15 3911.17 4439.55 3967.49 4409.86C4023.81 4380.16 4079.62 4346.88 4134.91 4310.02C4190.21 4273.15 4246.02 4231.17 4302.34 4184.06C4358.66 4136.96 4406.27 4093.44 4445.18 4053.5C4484.1 4013.57 4523.01 3969.54 4561.92 3921.41C4600.83 3873.28 4634.11 3828.74 4661.76 3787.78C4689.41 3746.82 4721.66 3692.03 4758.53 3623.42C4795.39 3554.82 4823.55 3496.96 4843.01 3449.86C4862.46 3402.75 4880.38 3353.6 4896.77 3302.4C4913.15 3251.2 4929.02 3188.74 4944.38 3115.01C4959.74 3041.28 4970.5 2974.21 4976.64 2913.79C4982.78 2853.38 4985.86 2790.91 4985.86 2726.4C4985.86 2661.89 4983.3 2601.47 4978.18 2545.15C4973.06 2488.83 4964.86 2429.95 4953.6 2368.51C4942.34 2307.07 4928 2246.14 4910.59 2185.73C4893.18 2125.31 4873.73 2067.97 4852.22 2013.7C4830.72 1959.42 4804.61 1902.59 4773.89 1843.2C4743.17 1783.81 4715.52 1734.66 4690.94 1695.74C4666.37 1656.83 4647.42 1629.18 4634.11 1612.8C4620.8 1596.42 4613.63 1585.66 4612.61 1580.54C4611.58 1575.42 4609.02 1571.84 4604.93 1569.79C4600.83 1567.74 4581.89 1545.22 4548.1 1502.21C4514.3 1459.2 4480 1419.78 4445.18 1383.94C4410.37 1348.1 4370.43 1310.72 4325.38 1271.81C4280.32 1232.9 4231.17 1194.5 4177.92 1156.61C4124.67 1118.72 4073.98 1085.95 4025.86 1058.3C3977.73 1030.66 3920.38 1001.98 3853.82 972.288C3787.26 942.592 3725.82 918.528 3669.5 900.096C3613.18 881.664 3555.33 865.792 3495.94 852.48C3436.54 839.168 3372.03 828.416 3302.4 820.224C3232.77 812.032 3167.74 807.424 3107.33 806.4C3046.91 805.376 2984.96 807.424 2921.47 812.544ZM3115.01 858.624C3168.26 859.648 3223.55 863.232 3280.9 869.376C3338.24 875.52 3396.61 884.736 3456 897.024C3515.39 909.312 3570.18 923.136 3620.35 938.496C3670.53 953.856 3698.18 975.872 3703.3 1004.54C3708.42 1033.22 3715.07 1056.77 3723.26 1075.2C3731.46 1093.63 3738.62 1106.43 3744.77 1113.6C3747.84 1117.18 3750.91 1120.77 3753.98 1124.35C3724.29 1125.38 3694.59 1126.4 3664.9 1127.42C3605.5 1129.47 3549.18 1134.08 3495.94 1141.25C3442.69 1148.42 3386.88 1158.66 3328.51 1171.97C3270.14 1185.28 3215.87 1200.13 3165.7 1216.51C3115.52 1232.9 3081.73 1245.18 3064.32 1253.38C3046.91 1261.57 3035.65 1265.15 3030.53 1264.13C3025.41 1263.1 3021.31 1264.13 3018.24 1267.2C3015.17 1270.27 2997.76 1268.74 2966.02 1262.59C2934.27 1256.45 2901.5 1248.26 2867.71 1238.02C2833.92 1227.78 2801.15 1220.1 2769.41 1214.98C2737.66 1209.86 2691.58 1205.25 2631.17 1201.15C2570.75 1197.06 2518.53 1195.52 2474.5 1196.54C2430.46 1197.57 2392.58 1196.54 2360.83 1193.47C2329.09 1190.4 2311.17 1161.73 2307.07 1107.46C2302.98 1053.18 2305.02 1024 2313.22 1019.9C2321.41 1015.81 2353.66 1003.01 2409.98 981.504C2466.3 960 2522.11 941.568 2577.41 926.208C2632.7 910.848 2693.12 897.536 2758.66 886.272C2824.19 875.008 2886.66 867.328 2946.05 863.232C3005.44 859.136 3061.76 857.6 3115.01 858.624ZM2282.5 1035.26C2284.54 1035.26 2287.62 1058.3 2291.71 1104.38C2295.81 1150.46 2296.32 1178.62 2293.25 1188.86C2290.18 1199.1 2281.98 1208.32 2268.67 1216.51C2255.36 1224.7 2237.95 1239.04 2216.45 1259.52C2194.94 1280 2164.74 1313.79 2125.82 1360.9C2086.91 1408 2040.32 1467.39 1986.05 1539.07C1931.78 1610.75 1891.84 1667.07 1866.24 1708.03C1840.64 1748.99 1825.79 1775.62 1821.7 1787.9C1817.6 1800.19 1814.02 1806.85 1810.94 1807.87C1807.87 1808.9 1804.29 1806.34 1800.19 1800.19C1796.1 1794.05 1792.51 1790.98 1789.44 1790.98C1786.37 1790.98 1783.81 1793.02 1781.76 1797.12C1779.71 1801.22 1780.74 1805.31 1784.83 1809.41C1788.93 1813.5 1790.46 1816.58 1789.44 1818.62C1788.42 1820.67 1783.81 1822.21 1775.62 1823.23C1767.42 1824.26 1755.14 1829.38 1738.75 1838.59C1722.37 1847.81 1688.58 1870.34 1637.38 1906.18C1586.18 1942.02 1536 1980.93 1486.85 2022.91C1437.7 2064.9 1391.62 2108.93 1348.61 2155.01C1327.1 2178.05 1305.6 2201.09 1284.1 2224.13C1294.34 2191.87 1304.58 2159.62 1314.82 2127.36C1335.3 2062.85 1361.41 1996.8 1393.15 1929.22C1424.9 1861.63 1455.62 1803.26 1485.31 1754.11C1515.01 1704.96 1550.34 1653.25 1591.3 1598.98C1632.26 1544.7 1673.73 1495.04 1715.71 1449.98C1757.7 1404.93 1803.26 1360.9 1852.42 1317.89C1901.57 1274.88 1954.82 1233.41 2012.16 1193.47C2069.5 1153.54 2128.38 1117.18 2188.8 1084.42C2249.22 1051.65 2280.45 1035.26 2282.5 1035.26ZM3740.16 1148.93C3798.53 1148.93 3837.95 1156.61 3858.43 1171.97C3878.91 1187.33 3904.51 1203.2 3935.23 1219.58C3965.95 1235.97 4004.35 1260.03 4050.43 1291.78C4096.51 1323.52 4142.08 1355.78 4187.14 1388.54C4232.19 1421.31 4268.03 1449.98 4294.66 1474.56C4321.28 1499.14 4337.66 1515.52 4343.81 1523.71C4349.95 1531.9 4358.14 1558.53 4368.38 1603.58C4378.62 1648.64 4387.33 1696.26 4394.5 1746.43C4401.66 1796.61 4406.78 1844.74 4409.86 1890.82C4412.93 1936.9 4413.95 1990.14 4412.93 2050.56C4411.9 2110.98 4409.34 2160.64 4405.25 2199.55C4401.15 2238.46 4362.75 2267.65 4290.05 2287.1C4217.34 2306.56 4155.9 2326.02 4105.73 2345.47C4055.55 2364.93 3998.72 2383.87 3935.23 2402.3C3871.74 2420.74 3821.57 2436.61 3784.7 2449.92C3747.84 2463.23 3727.87 2469.89 3724.8 2469.89C3723.26 2469.89 3721.73 2469.89 3720.19 2469.89C3720.19 2467.33 3720.19 2464.77 3720.19 2462.21C3720.19 2457.09 3718.14 2453.5 3714.05 2451.46C3709.95 2449.41 3705.86 2450.94 3701.76 2456.06C3697.66 2461.18 3695.1 2469.38 3694.08 2480.64C3693.57 2486.27 3693.06 2491.9 3692.54 2497.54C3667.46 2471.94 3642.37 2446.34 3617.28 2420.74C3567.1 2369.54 3514.37 2321.41 3459.07 2276.35C3403.78 2231.3 3352.06 2192.9 3303.94 2161.15C3255.81 2129.41 3199.49 2097.15 3134.98 2064.38C3070.46 2031.62 3038.72 1994.24 3039.74 1952.26C3040.77 1910.27 3037.7 1866.24 3030.53 1820.16C3023.36 1774.08 3022.85 1702.4 3028.99 1605.12C3035.14 1507.84 3039.74 1442.82 3042.82 1410.05C3045.89 1377.28 3050.5 1350.66 3056.64 1330.18C3062.78 1309.7 3065.34 1295.36 3064.32 1287.17C3063.3 1278.98 3086.34 1266.69 3133.44 1250.3C3180.54 1233.92 3232.77 1218.56 3290.11 1204.22C3347.46 1189.89 3398.14 1179.14 3442.18 1171.97C3486.21 1164.8 3532.29 1159.17 3580.42 1155.07C3628.54 1150.98 3681.79 1148.93 3740.16 1148.93ZM4383.74 1572.86C4387.33 1576.45 4390.91 1580.03 4394.5 1583.62C4401.66 1590.78 4404.74 1595.39 4403.71 1597.44C4402.69 1599.49 4400.13 1601.02 4396.03 1602.05C4393.98 1602.56 4391.94 1603.07 4389.89 1603.58C4388.86 1598.46 4387.84 1593.34 4386.82 1588.22C4385.79 1583.1 4384.77 1577.98 4383.74 1572.86ZM4566.53 1606.66C4571.65 1608.7 4587.52 1629.18 4614.14 1668.1C4640.77 1707.01 4673.02 1761.28 4710.91 1830.91C4748.8 1900.54 4777.47 1958.91 4796.93 2006.02C4816.38 2053.12 4834.82 2104.32 4852.22 2159.62C4869.63 2214.91 4884.99 2274.82 4898.3 2339.33C4911.62 2403.84 4921.34 2467.84 4927.49 2531.33C4933.63 2594.82 4936.7 2654.21 4936.7 2709.5C4936.7 2764.8 4933.63 2824.19 4927.49 2887.68C4921.34 2951.17 4884.99 2981.38 4818.43 2978.3C4751.87 2975.23 4711.94 2940.42 4698.62 2873.86C4685.31 2807.3 4670.98 2753.02 4655.62 2711.04C4640.26 2669.06 4619.26 2620.42 4592.64 2565.12C4566.02 2509.82 4541.95 2463.74 4520.45 2426.88C4498.94 2390.02 4480.51 2361.86 4465.15 2342.4C4449.79 2322.94 4438.02 2304 4429.82 2285.57C4421.63 2267.14 4420.1 2234.37 4425.22 2187.26C4430.34 2140.16 4432.9 2080.77 4432.9 2009.09C4432.9 1937.41 4430.85 1879.04 4426.75 1833.98C4422.66 1788.93 4417.02 1744.9 4409.86 1701.89C4402.69 1658.88 4407.3 1633.79 4423.68 1626.62C4440.06 1619.46 4466.69 1613.82 4503.55 1609.73C4540.42 1605.63 4561.41 1604.61 4566.53 1606.66ZM1804.8 1838.59C1807.87 1839.62 1852.93 1900.54 1939.97 2021.38C2027.01 2142.21 2080.26 2213.89 2099.71 2236.42C2119.17 2258.94 2143.23 2283.52 2171.9 2310.14C2200.58 2336.77 2205.18 2380.8 2185.73 2442.24C2166.27 2503.68 2149.89 2571.78 2136.58 2646.53C2123.26 2721.28 2114.56 2787.84 2110.46 2846.21C2106.37 2904.58 2105.86 2972.16 2108.93 3048.96C2112 3125.76 2104.83 3169.28 2087.42 3179.52C2070.02 3189.76 2051.58 3203.07 2032.13 3219.46C2012.67 3235.84 1987.07 3253.76 1955.33 3273.22C1923.58 3292.67 1891.33 3314.69 1858.56 3339.26C1825.79 3363.84 1793.02 3385.34 1760.26 3403.78C1727.49 3422.21 1708.03 3430.4 1701.89 3428.35C1695.74 3426.3 1688.06 3430.4 1678.85 3440.64C1669.63 3450.88 1660.42 3458.56 1651.2 3463.68C1646.59 3466.24 1641.98 3468.8 1637.38 3471.36C1636.35 3468.29 1635.33 3465.22 1634.3 3462.14C1632.26 3456 1627.65 3452.93 1620.48 3452.93C1613.31 3452.93 1600.51 3443.71 1582.08 3425.28C1563.65 3406.85 1532.42 3370.5 1488.38 3316.22C1444.35 3261.95 1405.44 3208.7 1371.65 3156.48C1337.86 3104.26 1306.62 3049.98 1277.95 2993.66C1249.28 2937.34 1233.41 2908.67 1230.34 2907.65C1227.26 2906.62 1224.19 2863.62 1221.12 2778.62C1218.05 2693.63 1218.05 2628.61 1221.12 2583.55C1224.19 2538.5 1231.87 2479.62 1244.16 2406.91C1256.45 2334.21 1266.69 2291.2 1274.88 2277.89C1283.07 2264.58 1314.3 2229.25 1368.58 2171.9C1422.85 2114.56 1465.86 2072.06 1497.6 2044.42C1529.34 2016.77 1571.84 1983.49 1625.09 1944.58C1678.34 1905.66 1707.52 1885.18 1712.64 1883.14C1717.76 1881.09 1721.86 1881.09 1724.93 1883.14C1728 1885.18 1732.61 1884.67 1738.75 1881.6C1744.9 1878.53 1756.67 1870.34 1774.08 1857.02C1791.49 1843.71 1801.73 1837.57 1804.8 1838.59ZM2966.02 2012.16C2973.18 2012.16 2989.57 2017.79 3015.17 2029.06C3040.77 2040.32 3083.78 2062.34 3144.19 2095.1C3204.61 2127.87 3262.98 2163.71 3319.3 2202.62C3375.62 2241.54 3423.74 2277.89 3463.68 2311.68C3503.62 2345.47 3551.74 2392.06 3608.06 2451.46C3664.38 2510.85 3691.52 2573.31 3689.47 2638.85C3687.42 2704.38 3679.74 2772.99 3666.43 2844.67C3653.12 2916.35 3639.81 3014.14 3626.5 3138.05C3613.18 3261.95 3602.43 3324.93 3594.24 3326.98C3586.05 3329.02 3579.39 3333.63 3574.27 3340.8C3569.15 3347.97 3539.46 3367.94 3485.18 3400.7C3430.91 3433.47 3367.42 3466.24 3294.72 3499.01C3222.02 3531.78 3144.7 3560.45 3062.78 3585.02C2980.86 3609.6 2910.21 3626.5 2850.82 3635.71C2791.42 3644.93 2745.86 3640.83 2714.11 3623.42C2682.37 3606.02 2636.8 3578.37 2577.41 3540.48C2518.02 3502.59 2451.46 3454.46 2377.73 3396.1C2304 3337.73 2245.63 3287.55 2202.62 3245.57C2159.62 3203.58 2138.62 3179.52 2139.65 3173.38C2140.67 3167.23 2140.16 3163.14 2138.11 3161.09C2136.06 3159.04 2134.02 3144.7 2131.97 3118.08C2129.92 3091.46 2128.9 3043.33 2128.9 2973.7C2128.9 2904.06 2130.43 2851.33 2133.5 2815.49C2136.58 2779.65 2144.26 2725.89 2156.54 2654.21C2168.83 2582.53 2184.19 2515.46 2202.62 2452.99C2221.06 2390.53 2234.88 2359.81 2244.1 2360.83C2253.31 2361.86 2259.46 2356.74 2262.53 2345.47C2265.6 2334.21 2298.37 2308.61 2360.83 2268.67C2423.3 2228.74 2511.87 2183.17 2626.56 2131.97C2741.25 2080.77 2824.7 2048 2876.93 2033.66C2929.15 2019.33 2958.85 2012.16 2966.02 2012.16ZM1231.87 2946.05C1241.6 2966.02 1251.33 2985.98 1261.06 3005.95C1280.51 3045.89 1307.65 3093.5 1342.46 3148.8C1377.28 3204.1 1412.1 3254.27 1446.91 3299.33C1481.73 3344.38 1518.08 3387.39 1555.97 3428.35C1593.86 3469.31 1617.41 3504.13 1626.62 3532.8C1635.84 3561.47 1655.3 3608.58 1684.99 3674.11C1714.69 3739.65 1755.65 3816.45 1807.87 3904.51C1860.1 3992.58 1899.01 4054.02 1924.61 4088.83C1950.21 4123.65 1963.01 4142.59 1963.01 4145.66C1963.01 4148.74 1958.4 4155.39 1949.18 4165.63C1939.97 4175.87 1913.34 4162.56 1869.31 4125.7C1825.28 4088.83 1780.22 4046.34 1734.14 3998.21C1688.06 3950.08 1644.54 3899.39 1603.58 3846.14C1562.62 3792.9 1526.27 3740.67 1494.53 3689.47C1462.78 3638.27 1435.14 3589.12 1411.58 3542.02C1388.03 3494.91 1364.99 3442.18 1342.46 3383.81C1319.94 3325.44 1299.97 3264 1282.56 3199.49C1265.15 3134.98 1252.35 3076.61 1244.16 3024.38C1240.06 2998.27 1235.97 2972.16 1231.87 2946.05ZM4830.72 2995.2C4858.88 2995.2 4887.04 2995.2 4915.2 2995.2C4915.2 2996.74 4915.2 2998.27 4915.2 2999.81C4915.2 3002.88 4908.54 3036.16 4895.23 3099.65C4881.92 3163.14 4867.58 3219.46 4852.22 3268.61C4836.86 3317.76 4820.99 3362.82 4804.61 3403.78C4788.22 3444.74 4770.3 3485.18 4750.85 3525.12C4731.39 3565.06 4701.18 3618.3 4660.22 3684.86C4619.26 3751.42 4573.18 3816.45 4521.98 3879.94C4470.78 3943.42 4427.26 3993.09 4391.42 4028.93C4355.58 4064.77 4313.09 4103.17 4263.94 4144.13C4214.78 4185.09 4178.94 4203.01 4156.42 4197.89C4133.89 4192.77 4122.62 4187.14 4122.62 4180.99C4122.62 4174.85 4119.04 4170.24 4111.87 4167.17C4104.7 4164.1 4113.41 4125.7 4137.98 4051.97C4162.56 3978.24 4179.97 3918.34 4190.21 3872.26C4200.45 3826.18 4208.64 3782.14 4214.78 3740.16C4220.93 3698.18 4228.61 3673.6 4237.82 3666.43C4247.04 3659.26 4251.65 3654.14 4251.65 3651.07C4251.65 3648 4294.66 3591.68 4380.67 3482.11C4466.69 3372.54 4549.12 3264 4627.97 3156.48C4706.82 3048.96 4774.4 2995.2 4830.72 2995.2ZM3624.96 3351.55C3632.64 3354.11 3640.32 3356.67 3648 3359.23C3663.36 3364.35 3702.78 3382.27 3766.27 3412.99C3829.76 3443.71 3886.08 3474.43 3935.23 3505.15C3984.38 3535.87 4024.32 3564.54 4055.04 3591.17C4085.76 3617.79 4112.38 3638.27 4134.91 3652.61C4157.44 3666.94 4166.66 3697.66 4162.56 3744.77C4158.46 3791.87 4151.3 3840.51 4141.06 3890.69C4130.82 3940.86 4116.99 3998.21 4099.58 4062.72C4082.18 4127.23 4070.4 4166.14 4064.26 4179.46C4058.11 4192.77 4028.42 4215.81 3975.17 4248.58C3921.92 4281.34 3865.6 4312.06 3806.21 4340.74C3746.82 4369.41 3683.33 4395.52 3615.74 4419.07C3548.16 4442.62 3483.65 4462.08 3422.21 4477.44C3360.77 4492.8 3320.83 4501.5 3302.4 4503.55C3283.97 4505.6 3274.24 4508.16 3273.22 4511.23C3272.19 4514.3 3251.2 4510.21 3210.24 4498.94C3169.28 4487.68 3121.15 4470.78 3065.86 4448.26C3010.56 4425.73 2946.05 4393.98 2872.32 4353.02C2798.59 4312.06 2758.66 4285.44 2752.51 4273.15C2746.37 4260.86 2738.69 4254.21 2729.47 4253.18C2724.86 4252.67 2720.26 4252.16 2715.65 4251.65C2724.86 4204.03 2734.08 4156.42 2743.3 4108.8C2761.73 4013.57 2779.65 3940.86 2797.06 3890.69C2814.46 3840.51 2825.73 3801.6 2830.85 3773.95C2833.41 3760.13 2835.97 3746.3 2838.53 3732.48C2841.09 3733.5 2843.65 3734.53 2846.21 3735.55C2851.33 3737.6 2855.94 3737.09 2860.03 3734.02C2864.13 3730.94 2865.66 3725.82 2864.64 3718.66C2863.62 3711.49 2854.4 3702.27 2836.99 3691.01C2828.29 3685.38 2819.58 3679.74 2810.88 3674.11C2845.7 3666.94 2880.51 3659.78 2915.33 3652.61C2984.96 3638.27 3051.01 3620.86 3113.47 3600.38C3175.94 3579.9 3244.54 3552.26 3319.3 3517.44C3394.05 3482.62 3448.83 3454.98 3483.65 3434.5C3518.46 3414.02 3547.14 3395.58 3569.66 3379.2C3592.19 3362.82 3606.53 3357.18 3612.67 3362.3C3615.74 3364.86 3618.82 3367.42 3621.89 3369.98C3622.4 3366.91 3622.91 3363.84 3623.42 3360.77C3623.94 3357.7 3624.45 3354.62 3624.96 3351.55ZM2079.74 4194.82C2137.09 4222.46 2204.67 4246.53 2282.5 4267.01C2360.32 4287.49 2413.06 4299.78 2440.7 4303.87C2468.35 4307.97 2507.78 4311.04 2558.98 4313.09C2610.18 4315.14 2643.97 4316.16 2660.35 4316.16C2676.74 4316.16 2685.95 4314.62 2688 4311.55C2690.05 4308.48 2694.66 4307.46 2701.82 4308.48C2708.99 4309.5 2713.09 4308.99 2714.11 4306.94C2715.14 4304.9 2718.21 4303.87 2723.33 4303.87C2728.45 4303.87 2749.95 4316.16 2787.84 4340.74C2825.73 4365.31 2871.3 4390.91 2924.54 4417.54C2977.79 4444.16 3024.9 4465.66 3065.86 4482.05C3106.82 4498.43 3155.46 4514.82 3211.78 4531.2C3268.1 4547.58 3296.77 4556.8 3297.79 4558.85C3298.3 4559.87 3298.82 4560.9 3299.33 4561.92C3270.14 4563.97 3240.96 4566.02 3211.78 4568.06C3153.41 4572.16 3089.92 4573.18 3021.31 4571.14C2952.7 4569.09 2890.75 4564.48 2835.46 4557.31C2780.16 4550.14 2716.16 4537.86 2643.46 4520.45C2570.75 4503.04 2496.51 4480 2420.74 4451.33C2344.96 4422.66 2287.62 4398.59 2248.7 4379.14C2209.79 4359.68 2170.37 4338.18 2130.43 4314.62C2090.5 4291.07 2051.58 4265.98 2013.7 4239.36C1975.81 4212.74 1956.86 4197.89 1956.86 4194.82C1956.86 4191.74 1963.01 4184.06 1975.3 4171.78C1987.58 4159.49 2022.4 4167.17 2079.74 4194.82Z" fill="#000000" fill-rule="nonzero" opacity="1" stroke="none" vectornator:layerName="Courbe 2"/>
</g>
</svg>
